<svg xmlns="http://www.w3.org/2000/svg" viewBox="0 0 100 100" width="100" height="100">
  <defs>
    <linearGradient id="bg" x1="0%" y1="0%" x2="100%" y2="100%">
      <stop offset="0%" style="stop-color:#2196F3;stop-opacity:1" />
      <stop offset="100%" style="stop-color:#1565C0;stop-opacity:1" />
    </linearGradient>
  </defs>
  <rect width="100" height="100" rx="15" ry="15" fill="url(#bg)" />
  <!-- Cloud -->
  <path d="M72 55c0-7.2-5.8-13-13-13-1.2 0-2.3.2-3.4.5C53.5 36.2 47.3 32 40 32c-9.4 0-17 7.6-17 17 0 .6 0 1.2.1 1.8C18.2 52.3 15 56.4 15 61c0 5.5 4.5 10 10 10h47c5 0 9-4 9-9 0-4.1-2.7-7.5-6.5-8.6" fill="white" opacity="0.9"/>
  <!-- Shutter lines -->
  <line x1="30" y1="52" x2="60" y2="52" stroke="#1565C0" stroke-width="2.5" stroke-linecap="round"/>
  <line x1="30" y1="57" x2="60" y2="57" stroke="#1565C0" stroke-width="2.5" stroke-linecap="round"/>
  <line x1="30" y1="62" x2="60" y2="62" stroke="#1565C0" stroke-width="2.5" stroke-linecap="round"/>
  <!-- Arrow down -->
  <polygon points="45,67 40,63 50,63" fill="#1565C0"/>
</svg>
